<svg xml:space="preserve" width="187.717" height="100.153" xmlns:xlink="http://www.w3.org/1999/xlink" xmlns="http://www.w3.org/2000/svg"><defs><linearGradient x1="62.124" y1="-93.703" x2="97.745" y2="-93.703" gradientUnits="userSpaceOnUse" gradientTransform="rotate(87.88)" spreadMethod="pad" id="a"><stop style="stop-opacity:1;stop-color:#ed1c24" offset="0"/><stop style="stop-opacity:1;stop-color:#fff200" offset="1"/></linearGradient><linearGradient xlink:href="#a" id="b" x1="82.847" y1="-185.956" x2="82.674" y2="-156.952" gradientUnits="userSpaceOnUse" gradientTransform="translate(2.994 -24.412) scale(.86924)"/><linearGradient xlink:href="#a" id="c" gradientUnits="userSpaceOnUse" gradientTransform="translate(2.994 -24.412) scale(.86924)" x1="82.847" y1="-185.956" x2="82.674" y2="-156.952"/></defs><g style="font-size:26.0772px;line-height:1.25;font-family:'Back to the future 2002';-inkscape-font-specification:'Back to the future 2002, Normal';fill:url(#b);stroke:#99def9;stroke-width:.977894" transform="translate(-4 -4)"><path style="fill:url(#c)" d="M46.376-171.09c.845 2.693 1.584 5.471 1.57 8.294H41.76c-.042-2.824-1.11-6.316-1.656-8.293h-5.411c.852 2.653.916 5.628 1.082 8.191h-6.38c-.413-8.333-3.291-15.726-6.01-22.996h6.672l-.293.013c1.388 2.76 2.69 6.043 3.527 8.569h5.412c-1.14-3.029-2.233-5.909-3.82-8.582l6.494.013c1.635 2.694 2.802 6.32 3.68 8.569h2.225s-1.985-5.509-2.962-8.505c3.897 0 11.393.004 18.642.012.985 2.046 1.655 3.638 2.012 4.775l-12.418-.089c.577 1.52 1.027 2.78 1.35 3.807h3.87l-.098-1.82 9.238 4.772-7.495 6.012.022-2.741h-4.057c.364 2.926.558 5.968.735 8.267h-6.036c.146-2.895-.823-5.548-1.709-8.267z" aria-label="HF" transform="translate(-90.34 779.286) scale(4.1596)"/></g></svg>